# xmcd
#
# Track frame offsets: 
#        150
#        12157
#        23277
#        35755
#        47202
#        56750
#        68973
#        82424
#        94514
#        106171
#        121331
#        133195
#        142696
#        156664
#        167770
#        180079
#        194477
#        206006
#        218317
#        230629
#        243670
#        255769
#        267470
#        278887
#        289448
#        302029
#
# Disc length: 4165 seconds
#
# Revision: 0
# Processed by: cddbd v1.5.2PL0 Copyright (c) Steve Scherf et al.
# Submitted via: ExactAudioCopyFreeDBPlugin 1.0
#
DISCID=7910431a
DTITLE=Various Artist - Stax '68 - A Memphis Story [CD1]
DYEAR=2018
DGENRE=Soul
TTITLE0=Otis Redding - (Sittin' On) The Dock of the Bay
TTITLE1=Otis Redding - Sweet Lorene
TTITLE2=Sam and Dave - I Thank You
TTITLE3=Sam and Dave - Wrap It Up
TTITLE4=The Memphis Nomads - Don't Pass Your Judgement
TTITLE5=The Memphis Nomads - I Wanna Be (Your Lover and Your Honey)
TTITLE6=Shirley Walton - I Was Born to Love You
TTITLE7=Shirley Walton - I'm So Glad You're Back
TTITLE8=Otis Redding and Carla Thomas - Lovey Dovey
TTITLE9=Otis Redding and Carla Thomas - New Year's Resolution
TTITLE10=Ollie and The Nightingales - I Got a Sure Thing
TTITLE11=Ollie and The Nightingales - Girl, You Have My Heart Singing
TTITLE12=Eddie Floyd - Big Bird
TTITLE13=Eddie Floyd - Holding on with Both Hands
TTITLE14=Bar-Kays - A Hard Day's Night
TTITLE15=Bar-Kays - I Want Someone
TTITLE16=Johnnie Taylor - Next Time
TTITLE17=Johnnie Taylor - Sundown
TTITLE18=William Bell - Every Man Oughta Have a Woman
TTITLE19=William Bell - A Tribute to a King
TTITLE20=Mable John - Able Mable
TTITLE21=Mable John - Don't Get Caught
TTITLE22=Rufus Thomas - The Memphis Train
TTITLE23=Rufus Thomas - I Think I Made a Boo Boo
TTITLE24=Jeanne and The Darlings - What Will Later On Be Like
TTITLE25=Jeanne and The Darlings - Hang Me Now
EXTD=
EXTT0=
EXTT1=
EXTT2=
EXTT3=
EXTT4=
EXTT5=
EXTT6=
EXTT7=
EXTT8=
EXTT9=
EXTT10=
EXTT11=
EXTT12=
EXTT13=
EXTT14=
EXTT15=
EXTT16=
EXTT17=
EXTT18=
EXTT19=
EXTT20=
EXTT21=
EXTT22=
EXTT23=
EXTT24=
EXTT25=
PLAYORDER=
